<svg xmlns="http://www.w3.org/2000/svg" xmlns:xlink="http://www.w3.org/1999/xlink" width="500" zoomAndPan="magnify" viewBox="0 0 375 374.999991" height="500" preserveAspectRatio="xMidYMid meet" version="1.0"><defs><g/><clipPath id="0472c0741e"><path d="M 259 102 L 263.242188 102 L 263.242188 108 L 259 108 Z M 259 102 " clip-rule="nonzero"/></clipPath><clipPath id="625683bcdc"><path d="M 131.242188 78.8125 L 228 78.8125 L 228 187.5625 L 131.242188 187.5625 Z M 131.242188 78.8125 " clip-rule="nonzero"/></clipPath></defs><rect x="-37.5" width="450" fill="#ffffff" y="-37.499999" height="449.999989" fill-opacity="1"/><rect x="-37.5" width="450" fill="#ffffff" y="-37.499999" height="449.999989" fill-opacity="1"/><path fill="#000000" d="M 220.964844 98.824219 L 234.511719 98.824219 L 234.511719 112.375 L 220.964844 112.375 Z M 220.964844 98.824219 " fill-opacity="1" fill-rule="evenodd"/><path fill="#ffbd59" d="M 234.210938 117.039062 L 244.597656 117.039062 L 244.597656 127.425781 L 234.210938 127.425781 Z M 234.210938 117.039062 " fill-opacity="1" fill-rule="evenodd"/><path fill="#000000" d="M 245.050781 102.4375 L 253.480469 102.4375 L 253.480469 110.867188 L 245.050781 110.867188 Z M 245.050781 102.4375 " fill-opacity="1" fill-rule="evenodd"/><g clip-path="url(#0472c0741e)"><path fill="#ffbd59" d="M 259.429688 102.964844 L 263.488281 102.964844 L 263.488281 107.027344 L 259.429688 107.027344 Z M 259.429688 102.964844 " fill-opacity="1" fill-rule="evenodd"/></g><path fill="#ffbd59" d="M 252.203125 92.203125 L 257.167969 92.203125 L 257.167969 97.167969 L 252.203125 97.167969 Z M 252.203125 92.203125 " fill-opacity="1" fill-rule="evenodd"/><path fill="#000000" d="M 246.105469 82.339844 L 250.167969 82.339844 L 250.167969 86.40625 L 246.105469 86.40625 Z M 246.105469 82.339844 " fill-opacity="1" fill-rule="evenodd"/><path fill="#000000" d="M 257.394531 82.792969 L 258.898438 82.792969 L 258.898438 84.300781 L 257.394531 84.300781 Z M 257.394531 82.792969 " fill-opacity="1" fill-rule="evenodd"/><path fill="#ffbd59" d="M 191.320312 126.957031 C 191.320312 120.386719 185.988281 115.054688 179.417969 115.054688 L 179.417969 94.800781 C 168.882812 104.050781 156.3125 110.671875 142.671875 113.949219 C 143.40625 128.207031 147.195312 142.796875 154.710938 154.960938 C 160.390625 164.15625 168.816406 172.707031 179.417969 175.84375 L 179.417969 151.246094 L 192.613281 151.246094 L 186.882812 136.226562 C 189.648438 133.992188 191.320312 130.605469 191.320312 126.953125 Z M 175.460938 135.078125 C 172.453125 133.609375 170.382812 130.527344 170.382812 126.957031 C 170.382812 121.96875 174.429688 117.921875 179.417969 117.921875 C 184.40625 117.921875 188.449219 121.96875 188.449219 126.957031 C 188.449219 130.527344 186.378906 133.609375 183.371094 135.078125 L 183.929688 136.546875 L 188.449219 148.375 L 170.382812 148.375 L 174.898438 136.546875 Z M 175.460938 135.078125 " fill-opacity="1" fill-rule="evenodd"/><g clip-path="url(#625683bcdc)"><path fill="#000000" d="M 179.417969 90.929688 C 189.230469 100.082031 201.007812 106.789062 213.890625 110.394531 L 213.890625 119.449219 L 218.609375 119.449219 C 217.257812 132.464844 213.382812 145.429688 206.558594 156.476562 C 200.335938 166.542969 191.085938 175.6875 179.414062 178.824219 C 167.738281 175.6875 158.488281 166.539062 152.269531 156.476562 C 144.082031 143.230469 140.140625 127.214844 139.707031 111.675781 C 154.628906 108.542969 168.285156 101.304688 179.414062 90.929688 Z M 217.351562 111.28125 L 217.351562 102.601562 C 202.5 98.71875 189.378906 90.285156 179.417969 78.8125 C 167.234375 92.839844 150.332031 102.320312 131.324219 104.503906 C 131.273438 105.914062 131.246094 107.328125 131.246094 108.757812 C 131.246094 148.636719 152.148438 181.679688 179.421875 187.488281 C 205.023438 182.035156 225.011719 152.570312 227.359375 115.984375 L 217.351562 115.984375 Z M 217.351562 111.28125 " fill-opacity="1" fill-rule="evenodd"/></g><g fill="#ffbd59" fill-opacity="1"><g transform="translate(80.105202, 239.571971)"><g><path d="M 24.53125 -21.984375 L 15.421875 -21.984375 L 15.421875 -26.296875 C 15.421875 -27.054688 14.984375 -27.4375 14.109375 -27.4375 L 12.234375 -27.4375 C 11.367188 -27.4375 10.9375 -27.054688 10.9375 -26.296875 L 10.9375 -7.140625 C 10.9375 -6.367188 11.367188 -5.984375 12.234375 -5.984375 L 14.109375 -5.984375 C 14.984375 -5.984375 15.421875 -6.367188 15.421875 -7.140625 L 15.421875 -12.703125 L 12.8125 -12.703125 L 12.8125 -18.484375 L 24.53125 -18.484375 L 24.53125 -6.453125 C 24.53125 -2.148438 21.976562 0 16.875 0 L 9.484375 0 C 4.378906 0 1.828125 -2.148438 1.828125 -6.453125 L 1.828125 -26.96875 C 1.828125 -31.28125 4.378906 -33.4375 9.484375 -33.4375 L 16.875 -33.4375 C 21.976562 -33.4375 24.53125 -31.28125 24.53125 -26.96875 Z M 24.53125 -21.984375 "/></g></g></g><g fill="#ffbd59" fill-opacity="1"><g transform="translate(106.196345, 239.571971)"><g><path d="M 14.265625 -25.984375 L 23.125 -25.984375 L 23.125 0 L 14.421875 0 L 14.421875 -3.328125 C 13.941406 -1.109375 12.363281 0 9.6875 0 L 8.75 0 C 4.132812 0 1.828125 -2.148438 1.828125 -6.453125 L 1.828125 -25.984375 L 10.671875 -25.984375 L 10.671875 -7.65625 C 10.671875 -6.894531 11.109375 -6.515625 11.984375 -6.515625 L 12.859375 -6.515625 C 13.796875 -6.515625 14.265625 -7.035156 14.265625 -8.078125 Z M 14.265625 -25.984375 "/></g></g></g><g fill="#ffbd59" fill-opacity="1"><g transform="translate(131.402162, 239.571971)"><g><path d="M 14.171875 -25.984375 L 22.859375 -25.984375 L 22.859375 0 L 14.015625 0 L 14.015625 -2.8125 C 13.347656 -0.9375 11.816406 0 9.421875 0 L 8.484375 0 C 3.867188 0 1.5625 -2.148438 1.5625 -6.453125 L 1.5625 -19.53125 C 1.5625 -23.832031 3.867188 -25.984375 8.484375 -25.984375 L 9.421875 -25.984375 C 12.097656 -25.984375 13.679688 -24.875 14.171875 -22.65625 Z M 11.71875 -6.515625 L 12.609375 -6.515625 C 13.546875 -6.515625 14.015625 -7.035156 14.015625 -8.078125 L 14.015625 -17.921875 C 14.015625 -18.960938 13.546875 -19.484375 12.609375 -19.484375 L 11.71875 -19.484375 C 10.851562 -19.484375 10.421875 -19.097656 10.421875 -18.328125 L 10.421875 -7.65625 C 10.421875 -6.894531 10.851562 -6.515625 11.71875 -6.515625 Z M 11.71875 -6.515625 "/></g></g></g><g fill="#ffbd59" fill-opacity="1"><g transform="translate(156.34758, 239.571971)"><g><path d="M 16.40625 -26.25 L 17.1875 -26.25 L 17.1875 -18.546875 L 14.21875 -18.546875 C 12.03125 -18.546875 10.9375 -17.363281 10.9375 -15 L 10.9375 0 L 2.078125 0 L 2.078125 -25.984375 L 10.78125 -25.984375 L 10.78125 -21.984375 C 11.0625 -23.296875 11.6875 -24.332031 12.65625 -25.09375 C 13.625 -25.863281 14.875 -26.25 16.40625 -26.25 Z M 16.40625 -26.25 "/></g></g></g><g fill="#ffbd59" fill-opacity="1"><g transform="translate(173.793753, 239.571971)"><g><path d="M 14.015625 -34.84375 L 22.859375 -34.84375 L 22.859375 0 L 14.171875 0 L 14.171875 -3.328125 C 13.679688 -1.109375 12.097656 0 9.421875 0 L 8.484375 0 C 3.867188 0 1.5625 -2.148438 1.5625 -6.453125 L 1.5625 -19.53125 C 1.5625 -23.832031 3.867188 -25.984375 8.484375 -25.984375 L 9.421875 -25.984375 C 11.816406 -25.984375 13.347656 -25.046875 14.015625 -23.171875 Z M 11.71875 -6.515625 L 12.609375 -6.515625 C 13.546875 -6.515625 14.015625 -7.035156 14.015625 -8.078125 L 14.015625 -17.921875 C 14.015625 -18.960938 13.546875 -19.484375 12.609375 -19.484375 L 11.71875 -19.484375 C 10.851562 -19.484375 10.421875 -19.097656 10.421875 -18.328125 L 10.421875 -7.65625 C 10.421875 -6.894531 10.851562 -6.515625 11.71875 -6.515625 Z M 11.71875 -6.515625 "/></g></g></g><g fill="#ffbd59" fill-opacity="1"><g transform="translate(198.739171, 239.571971)"><g><path d="M 11.203125 -6.515625 L 21.5625 -6.515625 L 21.5625 0 L 2.078125 0 L 2.078125 -33.4375 L 11.203125 -33.4375 Z M 11.203125 -6.515625 "/></g></g></g><g fill="#ffbd59" fill-opacity="1"><g transform="translate(220.299518, 239.571971)"><g><path d="M 1.921875 -28.59375 L 1.921875 -34.84375 L 11.09375 -34.84375 L 11.09375 -28.59375 Z M 10.9375 0 L 2.078125 0 L 2.078125 -25.984375 L 10.9375 -25.984375 Z M 10.9375 0 "/></g></g></g><g fill="#ffbd59" fill-opacity="1"><g transform="translate(233.319048, 239.571971)"><g><path d="M 15.515625 -25.984375 L 16.453125 -25.984375 C 21.078125 -25.984375 23.390625 -23.832031 23.390625 -19.53125 L 23.390625 0 L 14.53125 0 L 14.53125 -18.328125 C 14.53125 -19.097656 14.097656 -19.484375 13.234375 -19.484375 L 12.34375 -19.484375 C 11.40625 -19.484375 10.9375 -18.960938 10.9375 -17.921875 L 10.9375 0 L 2.078125 0 L 2.078125 -25.984375 L 10.78125 -25.984375 L 10.78125 -22.65625 C 11.269531 -24.875 12.847656 -25.984375 15.515625 -25.984375 Z M 15.515625 -25.984375 "/></g></g></g><g fill="#ffbd59" fill-opacity="1"><g transform="translate(258.524865, 239.571971)"><g><path d="M 10.9375 0 L 2.078125 0 L 2.078125 -34.84375 L 10.9375 -34.84375 L 10.9375 -14.171875 L 15.828125 -25.984375 L 25 -25.984375 L 19.421875 -13.171875 L 25 0 L 15.78125 0 L 10.9375 -12.140625 Z M 10.9375 0 "/></g></g></g><g fill="#000000" fill-opacity="1"><g transform="translate(134.604455, 268.932815)"><g><path d="M 5.234375 -8.109375 L 0.984375 -8.109375 L 0.984375 -10.328125 L 4.125 -15.828125 L 5.234375 -15.828125 Z M 10.453125 -8.109375 L 6.21875 -8.109375 L 6.21875 -10.328125 L 9.34375 -15.828125 L 10.453125 -15.828125 Z M 10.453125 -8.109375 "/></g></g></g><g fill="#000000" fill-opacity="1"><g transform="translate(147.272385, 268.932815)"><g><path d="M 8.328125 -15.828125 L 12.578125 -15.828125 L 12.578125 0 L 8.328125 0 L 8.328125 -6.265625 L 5.234375 -6.265625 L 5.234375 0 L 0.984375 0 L 0.984375 -15.828125 L 5.234375 -15.828125 L 5.234375 -9.34375 L 8.328125 -9.34375 Z M 8.328125 -15.828125 "/></g></g></g><g fill="#000000" fill-opacity="1"><g transform="translate(162.059739, 268.932815)"><g><path d="M 4.53125 -15.828125 L 8.1875 -15.828125 C 10.601562 -15.828125 11.8125 -14.804688 11.8125 -12.765625 L 11.8125 -3.0625 C 11.8125 -1.019531 10.601562 0 8.1875 0 L 4.53125 0 C 2.113281 0 0.90625 -1.019531 0.90625 -3.0625 L 0.90625 -12.765625 C 0.90625 -14.804688 2.113281 -15.828125 4.53125 -15.828125 Z M 7.5 -3.625 L 7.5 -12.203125 C 7.5 -12.566406 7.289062 -12.75 6.875 -12.75 L 5.84375 -12.75 C 5.4375 -12.75 5.234375 -12.566406 5.234375 -12.203125 L 5.234375 -3.625 C 5.234375 -3.257812 5.4375 -3.078125 5.84375 -3.078125 L 6.875 -3.078125 C 7.289062 -3.078125 7.5 -3.257812 7.5 -3.625 Z M 7.5 -3.625 "/></g></g></g><g fill="#000000" fill-opacity="1"><g transform="translate(176.009179, 268.932815)"><g><path d="M 5.296875 -5.625 L 5.296875 0 L 0.984375 0 L 0.984375 -15.828125 L 8.3125 -15.828125 C 10.726562 -15.828125 11.9375 -14.804688 11.9375 -12.765625 L 11.9375 -8.671875 C 11.9375 -7.117188 11.226562 -6.160156 9.8125 -5.796875 L 12.71875 0 L 8.09375 0 L 5.578125 -5.625 Z M 7 -12.75 L 5.296875 -12.75 L 5.296875 -8.5625 L 7 -8.5625 C 7.414062 -8.5625 7.625 -8.738281 7.625 -9.09375 L 7.625 -12.203125 C 7.625 -12.566406 7.414062 -12.75 7 -12.75 Z M 7 -12.75 "/></g></g></g><g fill="#000000" fill-opacity="1"><g transform="translate(189.90933, 268.932815)"><g><path d="M 7.5625 -15.828125 L 11.890625 -15.828125 L 11.890625 -3.0625 C 11.890625 -1.019531 10.679688 0 8.265625 0 L 4.609375 0 C 2.191406 0 0.984375 -1.019531 0.984375 -3.0625 L 0.984375 -15.828125 L 5.296875 -15.828125 L 5.296875 -3.625 C 5.296875 -3.257812 5.503906 -3.078125 5.921875 -3.078125 L 6.953125 -3.078125 C 7.359375 -3.078125 7.5625 -3.257812 7.5625 -3.625 Z M 7.5625 -15.828125 "/></g></g></g><g fill="#000000" fill-opacity="1"><g transform="translate(204.006642, 268.932815)"><g><path d="M 7.046875 -3.625 L 7.046875 -5.875 C 7.046875 -6.226562 6.84375 -6.40625 6.4375 -6.40625 L 4.0625 -6.40625 C 2.851562 -6.40625 1.992188 -6.671875 1.484375 -7.203125 C 0.984375 -7.742188 0.734375 -8.515625 0.734375 -9.515625 L 0.734375 -12.765625 C 0.734375 -14.804688 1.9375 -15.828125 4.34375 -15.828125 L 7.71875 -15.828125 C 10.113281 -15.828125 11.3125 -14.804688 11.3125 -12.765625 L 11.3125 -10.875 L 7 -10.875 L 7 -12.203125 C 7 -12.566406 6.796875 -12.75 6.390625 -12.75 L 5.671875 -12.75 C 5.253906 -12.75 5.046875 -12.566406 5.046875 -12.203125 L 5.046875 -9.859375 C 5.046875 -9.492188 5.253906 -9.3125 5.671875 -9.3125 L 7.984375 -9.3125 C 9.203125 -9.3125 10.066406 -9.054688 10.578125 -8.546875 C 11.097656 -8.046875 11.359375 -7.300781 11.359375 -6.3125 L 11.359375 -3.0625 C 11.359375 -1.019531 10.160156 0 7.765625 0 L 4.40625 0 C 1.988281 0 0.78125 -1.019531 0.78125 -3.0625 L 0.78125 -4.953125 L 5.109375 -4.953125 L 5.109375 -3.625 C 5.109375 -3.257812 5.3125 -3.078125 5.71875 -3.078125 L 6.4375 -3.078125 C 6.84375 -3.078125 7.046875 -3.257812 7.046875 -3.625 Z M 7.046875 -3.625 "/></g></g></g><g fill="#000000" fill-opacity="1"><g transform="translate(217.339969, 268.932815)"><g><path d="M 6.21875 -15.828125 L 10.453125 -15.828125 L 10.453125 -13.609375 L 7.328125 -8.109375 L 6.21875 -8.109375 Z M 0.984375 -15.828125 L 5.234375 -15.828125 L 5.234375 -13.609375 L 2.09375 -8.109375 L 0.984375 -8.109375 Z M 0.984375 -15.828125 "/></g></g></g></svg>